<svg height="300px" width="300px" fill="#80826f" xmlns="http://www.w3.org/2000/svg" xmlns:xlink="http://www.w3.org/1999/xlink" version="1.1" x="0px" y="0px" viewBox="0 0 100 100" enable-background="new 0 0 100 100" xml:space="preserve"><g><path d="M44.9,43.9c1,0.5,5.4,2.7,9.8,6.1c-3.2,4.5-8.2,7.7-14,8.3l-1.4-6.5c3.3-4.6-0.2-4.8-0.9-4.8h0h0c-0.6,0-4.1,0.2-0.9,4.8   l-1.4,6.5c-5.8-0.7-10.8-3.8-14-8.3c4.4-3.4,8.9-5.7,9.8-6.1c0.1-0.1,0.2-0.2,0.2-0.3v-2.8c-0.7-1.2-1.1-2.6-1.3-3.8   c-0.4,0-1-0.6-1.6-2.8c-0.8-2.9,0.1-3.3,0.8-3.3c-0.5-1.5-0.6-3-0.2-4.4c0.4-1.6,1.3-2.9,2.3-4c0.6-0.7,1.3-1.3,2.1-1.7   c0.6-0.4,1.3-0.8,2-1l0,0c0.6-0.2,1.2-0.3,1.8-0.4c2-0.2,3.5,0.3,4.6,1c1.6,0.9,2.3,2.1,2.3,2.1s4.1,0.3,2.3,8.9   c0.6,0.2,0.9,1,0.3,3.2c-0.8,2.8-1.5,2.9-1.9,2.7c-0.2,1-0.5,2-0.9,3c0,1.4,0,2.7,0,3.2C44.7,43.8,44.8,43.9,44.9,43.9z M95.8,95.8   c-2.8,2.8-7.3,2.8-10.1,0L60.9,71l1.3-1.3l-2.1-2.1c-14.2,10.6-34.5,9.5-47.4-3.5c-14.2-14.2-14.2-37.2,0-51.4   c14.2-14.2,37.2-14.2,51.4,0c12.9,12.9,14.1,33.2,3.5,47.4l2.1,2.1l1.3-1.3l24.8,24.8C98.6,88.5,98.6,93,95.8,95.8z M56.3,20.6   c-9.8-9.8-25.8-9.8-35.6,0c-9.8,9.8-9.8,25.8,0,35.6c9.8,9.8,25.8,9.8,35.6,0C66.1,46.4,66.1,30.5,56.3,20.6z"/></g></svg>